<svg width="40" height="41" viewBox="0 0 40 41" fill="none" xmlns="http://www.w3.org/2000/svg">
    <g opacity="0.5">
        <path
            d="M7.85936 29.8861C6.19631 28.0353 5.19849 26.0161 5.19849 22.6509C5.19849 16.7618 9.3561 11.5457 15.1767 8.85352L16.6735 11.0409C11.1854 14.0696 10.0213 17.9396 9.6887 20.4635C10.5202 19.9587 11.6844 19.7905 12.8485 19.9587C15.842 20.2953 18.1702 22.6509 18.1702 25.8479C18.1702 27.3622 17.505 28.8766 16.5072 30.0544C15.3431 31.2322 14.0126 31.737 12.3496 31.737C10.5202 31.737 8.85718 30.8957 7.85936 29.8861ZM24.4898 29.8861C22.8267 28.0353 21.8289 26.0161 21.8289 22.6509C21.8289 16.7618 25.9865 11.5457 31.8072 8.85352L33.3039 11.0409C27.8159 14.0696 26.6518 17.9396 26.3191 20.4635C27.1507 19.9587 28.3148 19.7905 29.4789 19.9587C32.4724 20.2953 34.8007 22.6509 34.8007 25.8479C34.8007 27.3622 34.1354 28.8766 33.1376 30.0544C32.1398 31.2322 30.6431 31.737 28.98 31.737C27.1507 31.737 25.4876 30.8957 24.4898 29.8861Z"
            fill="white" />
    </g>
</svg>