<svg width="1523" height="833" viewBox="0 0 1523 833" fill="none" xmlns="http://www.w3.org/2000/svg">
    <g opacity="0.35">
      <path d="M1422.4 63.9004C1425.5 63.9004 1428.1 66.4004 1428.1 69.5004C1428.1 72.7004 1425.5 75.2004 1422.4 75.2004C1419.3 75.2004 1416.7 72.7004 1416.7 69.5004C1416.7 66.4004 1419.3 63.9004 1422.4 63.9004Z" fill="white" />
      <path d="M1453.8 63.9004C1457 63.9004 1459.5 66.4004 1459.5 69.5004C1459.5 72.7004 1457 75.2004 1453.8 75.2004C1450.7 75.2004 1448.2 72.7004 1448.2 69.5004C1448.2 66.4004 1450.7 63.9004 1453.8 63.9004Z" fill="white" />
      <path d="M1485.3 63.9004C1488.4 63.9004 1490.9 66.4004 1490.9 69.5004C1490.9 72.7004 1488.4 75.2004 1485.3 75.2004C1482.1 75.2004 1479.6 72.7004 1479.6 69.5004C1479.6 66.4004 1482.1 63.9004 1485.3 63.9004Z" fill="white" />
      <path d="M1516.7 63.9004C1519.8 63.9004 1522.4 66.4004 1522.4 69.5004C1522.4 72.7004 1519.8 75.2004 1516.7 75.2004C1513.6 75.2004 1511.1 72.7004 1511.1 69.5004C1511.1 66.4004 1513.6 63.9004 1516.7 63.9004Z" fill="white" />
      <path d="M1406.7 94.0996C1409.8 94.0996 1412.3 96.5996 1412.3 99.6996C1412.3 102.9 1409.8 105.4 1406.7 105.4C1403.6 105.4 1401 102.9 1401 99.6996C1401 96.5996 1403.6 94.0996 1406.7 94.0996Z" fill="white" />
      <path d="M1438.1 94.0996C1441.2 94.0996 1443.8 96.5996 1443.8 99.6996C1443.8 102.9 1441.2 105.4 1438.1 105.4C1435 105.4 1432.5 102.9 1432.5 99.6996C1432.5 96.5996 1435 94.0996 1438.1 94.0996Z" fill="white" />
      <path d="M1469.6 94.0996C1472.7 94.0996 1475.2 96.5996 1475.2 99.6996C1475.2 102.9 1472.7 105.4 1469.6 105.4C1466.4 105.4 1463.9 102.9 1463.9 99.6996C1463.9 96.5996 1466.4 94.0996 1469.6 94.0996Z" fill="white" />
      <path d="M1501 94.0996C1504.1 94.0996 1506.7 96.5996 1506.7 99.6996C1506.7 102.9 1504.1 105.4 1501 105.4C1497.9 105.4 1495.3 102.9 1495.3 99.6996C1495.3 96.5996 1497.9 94.0996 1501 94.0996Z" fill="white" />
      <path d="M1406.7 36C1409.8 36 1412.3 38.5 1412.3 41.6C1412.3 44.7 1409.8 47.3 1406.7 47.3C1403.6 47.3 1401 44.7 1401 41.6C1401 38.5 1403.6 36 1406.7 36Z" fill="white" />
      <path d="M1438.1 36C1441.2 36 1443.8 38.5 1443.8 41.6C1443.8 44.7 1441.2 47.3 1438.1 47.3C1435 47.3 1432.5 44.7 1432.5 41.6C1432.5 38.5 1435 36 1438.1 36Z" fill="white" />
      <path d="M1469.6 36C1472.7 36 1475.2 38.5 1475.2 41.6C1475.2 44.7 1472.7 47.3 1469.6 47.3C1466.4 47.3 1463.9 44.7 1463.9 41.6C1463.9 38.5 1466.4 36 1469.6 36Z" fill="white" />
      <path d="M1501 36C1504.1 36 1506.7 38.5 1506.7 41.6C1506.7 44.7 1504.1 47.3 1501 47.3C1497.9 47.3 1495.3 44.7 1495.3 41.6C1495.3 38.5 1497.9 36 1501 36Z" fill="white" />
      <path d="M28.4 790.859C31.5 790.859 34.1 793.359 34.1 796.459C34.1 799.659 31.5 802.159 28.4 802.159C25.3 802.159 22.7001 799.659 22.7001 796.459C22.7001 793.359 25.3 790.859 28.4 790.859Z" fill="white" />
      <path d="M59.8 790.859C63 790.859 65.5 793.359 65.5 796.459C65.5 799.659 63 802.159 59.8 802.159C56.7 802.159 54.2001 799.659 54.2001 796.459C54.2001 793.359 56.7 790.859 59.8 790.859Z" fill="white" />
      <path d="M91.3 790.859C94.4 790.859 96.9 793.359 96.9 796.459C96.9 799.659 94.4 802.159 91.3 802.159C88.1 802.159 85.6 799.659 85.6 796.459C85.6 793.359 88.1 790.859 91.3 790.859Z" fill="white" />
      <path d="M122.7 790.859C125.8 790.859 128.4 793.359 128.4 796.459C128.4 799.659 125.8 802.159 122.7 802.159C119.6 802.159 117.1 799.659 117.1 796.459C117.1 793.359 119.6 790.859 122.7 790.859Z" fill="white" />
      <path d="M12.7001 821.059C15.8001 821.059 18.3 823.559 18.3 826.659C18.3 829.859 15.8001 832.359 12.7001 832.359C9.60007 832.359 7 829.859 7 826.659C7 823.559 9.60007 821.059 12.7001 821.059Z" fill="white" />
      <path d="M44.1 821.059C47.2 821.059 49.8 823.559 49.8 826.659C49.8 829.859 47.2 832.359 44.1 832.359C41 832.359 38.5 829.859 38.5 826.659C38.5 823.559 41 821.059 44.1 821.059Z" fill="white" />
      <path d="M75.6 821.059C78.7 821.059 81.2001 823.559 81.2001 826.659C81.2001 829.859 78.7 832.359 75.6 832.359C72.4 832.359 69.9 829.859 69.9 826.659C69.9 823.559 72.4 821.059 75.6 821.059Z" fill="white" />
      <path d="M107 821.059C110.1 821.059 112.7 823.559 112.7 826.659C112.7 829.859 110.1 832.359 107 832.359C103.9 832.359 101.3 829.859 101.3 826.659C101.3 823.559 103.9 821.059 107 821.059Z" fill="white" />
      <path d="M12.7001 762.959C15.8001 762.959 18.3 765.459 18.3 768.559C18.3 771.659 15.8001 774.259 12.7001 774.259C9.60007 774.259 7 771.659 7 768.559C7 765.459 9.60007 762.959 12.7001 762.959Z" fill="white" />
      <path d="M44.1 762.959C47.2 762.959 49.8 765.459 49.8 768.559C49.8 771.659 47.2 774.259 44.1 774.259C41 774.259 38.5 771.659 38.5 768.559C38.5 765.459 41 762.959 44.1 762.959Z" fill="white" />
      <path d="M75.6 762.959C78.7 762.959 81.2001 765.459 81.2001 768.559C81.2001 771.659 78.7 774.259 75.6 774.259C72.4 774.259 69.9 771.659 69.9 768.559C69.9 765.459 72.4 762.959 75.6 762.959Z" fill="white" />
      <path d="M107 762.959C110.1 762.959 112.7 765.459 112.7 768.559C112.7 771.659 110.1 774.259 107 774.259C103.9 774.259 101.3 771.659 101.3 768.559C101.3 765.459 103.9 762.959 107 762.959Z" fill="white" />
      <path opacity="0.9" d="M1401.16 380L1406.21 397.364L1421.52 400.164L1406.21 404.459L1401.16 420.329L1397.43 404.459L1381 400.164L1397.43 397.364L1401.16 380Z" fill="white" />
      <path opacity="0.9" d="M1150.82 280.06L1154.18 292.009L1164.63 293.876L1154.18 296.676L1150.82 307.692L1148.2 296.676L1137 293.876L1148.2 292.009L1150.82 280.06Z" fill="white" />
      <path opacity="0.9" d="M19.7909 47L24.6453 64.3637L39.5818 66.9776L24.6453 71.0852L19.7909 86.7685L16.0568 71.0852L0 66.9776L16.0568 64.3637L19.7909 47Z" fill="white" />
      <path opacity="0.9" d="M1229.23 0L1232.59 12.1359L1243.05 13.8163L1232.59 16.8036L1229.23 27.6326L1226.62 16.8036L1215.42 13.8163L1226.62 12.1359L1229.23 0Z" fill="white" />
      <path opacity="0.9" d="M623.816 57L627.177 68.9492L637.633 70.8163L627.177 73.6169L623.816 84.6326L621.202 73.6169L610 70.8163L621.202 68.9492L623.816 57Z" fill="white" />
      <path opacity="0.9" d="M53.8163 470L57.177 482.136L67.6326 483.816L57.177 486.804L53.8163 497.633L51.2024 486.804L40 483.816L51.2024 482.136L53.8163 470Z" fill="white" />
      <path opacity="0.9" d="M531.816 671.959L535.177 684.095L545.633 685.775L535.177 688.763L531.816 699.592L529.202 688.763L518 685.775L529.202 684.095L531.816 671.959Z" fill="white" />
    </g>
  </svg>