<svg width="1440" height="1301" viewBox="0 0 1440 1301" fill="none" xmlns="http://www.w3.org/2000/svg">
    <rect width="1440" height="1301" fill="#F6ECFF" />
    <g opacity="0.35">
      <path d="M1373.4 109.9C1376.5 109.9 1379.1 112.4 1379.1 115.5C1379.1 118.7 1376.5 121.2 1373.4 121.2C1370.3 121.2 1367.7 118.7 1367.7 115.5C1367.7 112.4 1370.3 109.9 1373.4 109.9Z" fill="#2581D9" />
      <path d="M1404.8 109.9C1408 109.9 1410.5 112.4 1410.5 115.5C1410.5 118.7 1408 121.2 1404.8 121.2C1401.7 121.2 1399.2 118.7 1399.2 115.5C1399.2 112.4 1401.7 109.9 1404.8 109.9Z" fill="#2581D9" />
      <path d="M1436.3 109.9C1439.4 109.9 1441.9 112.4 1441.9 115.5C1441.9 118.7 1439.4 121.2 1436.3 121.2C1433.1 121.2 1430.6 118.7 1430.6 115.5C1430.6 112.4 1433.1 109.9 1436.3 109.9Z" fill="#2581D9" />
      <path d="M1357.7 140.1C1360.8 140.1 1363.3 142.6 1363.3 145.7C1363.3 148.9 1360.8 151.4 1357.7 151.4C1354.6 151.4 1352 148.9 1352 145.7C1352 142.6 1354.6 140.1 1357.7 140.1Z" fill="#2581D9" />
      <path d="M1389.1 140.1C1392.2 140.1 1394.8 142.6 1394.8 145.7C1394.8 148.9 1392.2 151.4 1389.1 151.4C1386 151.4 1383.5 148.9 1383.5 145.7C1383.5 142.6 1386 140.1 1389.1 140.1Z" fill="#2581D9" />
      <path d="M1420.6 140.1C1423.7 140.1 1426.2 142.6 1426.2 145.7C1426.2 148.9 1423.7 151.4 1420.6 151.4C1417.4 151.4 1414.9 148.9 1414.9 145.7C1414.9 142.6 1417.4 140.1 1420.6 140.1Z" fill="#2581D9" />
      <path d="M1357.7 82C1360.8 82 1363.3 84.5 1363.3 87.6C1363.3 90.7 1360.8 93.3 1357.7 93.3C1354.6 93.3 1352 90.7 1352 87.6C1352 84.5 1354.6 82 1357.7 82Z" fill="#2581D9" />
      <path d="M1389.1 82C1392.2 82 1394.8 84.5 1394.8 87.6C1394.8 90.7 1392.2 93.3 1389.1 93.3C1386 93.3 1383.5 90.7 1383.5 87.6C1383.5 84.5 1386 82 1389.1 82Z" fill="#2581D9" />
      <path d="M1420.6 82C1423.7 82 1426.2 84.5 1426.2 87.6C1426.2 90.7 1423.7 93.3 1420.6 93.3C1417.4 93.3 1414.9 90.7 1414.9 87.6C1414.9 84.5 1417.4 82 1420.6 82Z" fill="#2581D9" />
      <path d="M49.4 1154.9C52.5 1154.9 55.1 1157.4 55.1 1160.5C55.1 1163.7 52.5 1166.2 49.4 1166.2C46.3 1166.2 43.7001 1163.7 43.7001 1160.5C43.7001 1157.4 46.3 1154.9 49.4 1154.9Z" fill="#2581D9" />
      <path d="M80.8 1154.9C84 1154.9 86.5 1157.4 86.5 1160.5C86.5 1163.7 84 1166.2 80.8 1166.2C77.7 1166.2 75.2001 1163.7 75.2001 1160.5C75.2001 1157.4 77.7 1154.9 80.8 1154.9Z" fill="#2581D9" />
      <path d="M112.3 1154.9C115.4 1154.9 117.9 1157.4 117.9 1160.5C117.9 1163.7 115.4 1166.2 112.3 1166.2C109.1 1166.2 106.6 1163.7 106.6 1160.5C106.6 1157.4 109.1 1154.9 112.3 1154.9Z" fill="#2581D9" />
      <path d="M143.7 1154.9C146.8 1154.9 149.4 1157.4 149.4 1160.5C149.4 1163.7 146.8 1166.2 143.7 1166.2C140.6 1166.2 138.1 1163.7 138.1 1160.5C138.1 1157.4 140.6 1154.9 143.7 1154.9Z" fill="#2581D9" />
      <path d="M33.7001 1185.1C36.8001 1185.1 39.3 1187.6 39.3 1190.7C39.3 1193.9 36.8001 1196.4 33.7001 1196.4C30.6001 1196.4 28 1193.9 28 1190.7C28 1187.6 30.6001 1185.1 33.7001 1185.1Z" fill="#2581D9" />
      <path d="M65.1 1185.1C68.2 1185.1 70.8 1187.6 70.8 1190.7C70.8 1193.9 68.2 1196.4 65.1 1196.4C62 1196.4 59.5 1193.9 59.5 1190.7C59.5 1187.6 62 1185.1 65.1 1185.1Z" fill="#2581D9" />
      <path d="M96.6 1185.1C99.7 1185.1 102.2 1187.6 102.2 1190.7C102.2 1193.9 99.7 1196.4 96.6 1196.4C93.4 1196.4 90.9 1193.9 90.9 1190.7C90.9 1187.6 93.4 1185.1 96.6 1185.1Z" fill="#2581D9" />
      <path d="M128 1185.1C131.1 1185.1 133.7 1187.6 133.7 1190.7C133.7 1193.9 131.1 1196.4 128 1196.4C124.9 1196.4 122.3 1193.9 122.3 1190.7C122.3 1187.6 124.9 1185.1 128 1185.1Z" fill="#2581D9" />
      <path d="M33.7001 1127C36.8001 1127 39.3 1129.5 39.3 1132.6C39.3 1135.7 36.8001 1138.3 33.7001 1138.3C30.6001 1138.3 28 1135.7 28 1132.6C28 1129.5 30.6001 1127 33.7001 1127Z" fill="#2581D9" />
      <path d="M65.1 1127C68.2 1127 70.8 1129.5 70.8 1132.6C70.8 1135.7 68.2 1138.3 65.1 1138.3C62 1138.3 59.5 1135.7 59.5 1132.6C59.5 1129.5 62 1127 65.1 1127Z" fill="#2581D9" />
      <path d="M96.6 1127C99.7 1127 102.2 1129.5 102.2 1132.6C102.2 1135.7 99.7 1138.3 96.6 1138.3C93.4 1138.3 90.9 1135.7 90.9 1132.6C90.9 1129.5 93.4 1127 96.6 1127Z" fill="#2581D9" />
      <path d="M128 1127C131.1 1127 133.7 1129.5 133.7 1132.6C133.7 1135.7 131.1 1138.3 128 1138.3C124.9 1138.3 122.3 1135.7 122.3 1132.6C122.3 1129.5 124.9 1127 128 1127Z" fill="#2581D9" />
      <path opacity="0.9" d="M1352.16 1146L1357.21 1163.36L1372.52 1166.16L1357.21 1170.46L1352.16 1186.33L1348.43 1170.46L1332 1166.16L1348.43 1163.36L1352.16 1146Z" fill="#2581D9" />
      <path opacity="0.9" d="M1321.82 502.06L1325.18 514.009L1335.63 515.876L1325.18 518.676L1321.82 529.692L1319.2 518.676L1308 515.876L1319.2 514.009L1321.82 502.06Z" fill="#2581D9" />
      <path opacity="0.9" d="M40.7909 79L45.6453 96.3637L60.5818 98.9776L45.6453 103.085L40.7909 118.768L37.0568 103.085L21 98.9776L37.0568 96.3637L40.7909 79Z" fill="#2581D9" />
      <path opacity="0.9" d="M74.8163 502L78.177 514.136L88.6326 515.816L78.177 518.804L74.8163 529.633L72.2024 518.804L61 515.816L72.2024 514.136L74.8163 502Z" fill="#2581D9" />
    </g>
  </svg>