<svg width="23" height="23" viewBox="0 0 23 23" fill="none" xmlns="http://www.w3.org/2000/svg">
    <path
        d="M21.4981 9.88272L17.021 14.247L18.0783 20.411C18.1243 20.6805 18.0136 20.9529 17.7922 21.1139C17.6672 21.2052 17.5184 21.2512 17.3696 21.2512C17.2553 21.2512 17.1403 21.2239 17.0354 21.1685L11.4996 18.2583L5.96447 21.1678C5.72297 21.2957 5.429 21.2749 5.20763 21.1132C4.98625 20.9522 4.87556 20.6798 4.92156 20.4102L5.97884 14.2462L1.50103 9.88272C1.30553 9.69153 1.23438 9.40547 1.31919 9.146C1.404 8.88653 1.62897 8.69606 1.89994 8.65653L8.08766 7.75809L10.8548 2.15041C11.0971 1.6595 11.9021 1.6595 12.1443 2.15041L14.9115 7.75809L21.0992 8.65653C21.3702 8.69606 21.5951 8.88581 21.6799 9.146C21.7647 9.40619 21.6936 9.69081 21.4981 9.88272Z"
        fill="#00AFFF" />
</svg>