<svg width="79" height="60" viewBox="0 0 79 60" fill="none" xmlns="http://www.w3.org/2000/svg">
    <path
        d="M48.9173 3.00491C48.8353 3.02542 48.7533 3.04593 48.6712 3.06643C42.6731 4.88125 36.9211 5.06582 31.2305 2.11289C25.5707 -0.778515 17.1118 -1.3322 13.3899 4.85049C12.0365 7.09594 11.4828 9.74128 11.1752 12.3559C10.0679 21.4915 11.2367 31.8267 13.2976 40.7778C14.7126 46.7759 17.4809 54.7119 23.0792 58.0647C24.4634 58.8952 26.2475 59.3874 27.6932 58.6799C28.7082 58.157 29.3542 57.1419 29.8156 56.0961C31.4458 52.3126 33.0146 38.5015 39.9047 41.5468C41.535 42.2542 42.6423 43.823 43.2268 45.484C44.4264 49.0521 43.9035 52.9586 45.5953 56.4037C46.1182 57.4495 46.8257 58.5261 47.933 58.926C48.7635 59.2336 49.6863 59.0798 50.5168 58.8029C54.208 57.4803 57.0994 53.3585 58.7912 50.0057C64.574 38.5015 66.6656 25.1519 64.7585 12.4174C64.1433 8.32634 62.6054 4.26606 58.5451 2.54352C55.5306 1.25161 52.0548 2.05136 48.9173 3.00491Z"
        fill="#F9FFF9" />
    <path
        d="M25.6015 50.4978C25.4169 51.2361 24.4634 51.4821 24.002 50.867C22.0334 48.4369 20.3416 44.4689 19.1727 39.4244C16.958 29.9196 16.2506 20.5687 17.1426 13.0941C17.3579 11.4638 17.6963 9.40294 18.5575 7.95723C18.8344 7.49584 19.6956 6.05013 22.8331 6.05013C24.6479 6.05013 26.7088 6.57304 28.4314 7.46507C32.2148 9.43369 36.3058 10.418 40.5507 10.418C43.6882 10.418 46.9179 9.92584 50.4245 8.84925L50.6398 8.78773C52.0548 8.3571 53.6851 7.89571 55.0077 7.89571C55.4999 7.89571 55.8998 7.95723 56.2074 8.11103C56.6687 8.29559 58.1452 8.91077 58.7912 13.3094C60.6367 25.5517 58.4528 38.5631 52.3009 49.329C52.0548 49.7596 51.8087 50.1902 51.3781 50.4363C49.5017 51.6052 49.6248 48.56 49.5633 47.6372C49.5222 46.94 49.43 46.2427 49.2864 45.5455C49.0404 44.1921 48.6405 42.8694 48.0253 41.6083C46.8256 39.1475 44.857 37.1174 42.3347 36.01C40.9198 35.3948 39.4741 35.0872 38.0284 35.0872C29.3849 35.0872 27.201 44.5612 25.6015 50.4978Z"
        fill="#F0F5F0" />
    <path
        d="M76.9085 17.8003C76.1703 16.4161 74.6016 15.3088 72.7252 14.8474C70.2644 14.263 67.7114 14.5398 65.0968 14.9397C65.1583 15.5959 65.2096 16.2623 65.2506 16.939C67.7422 16.5699 70.1106 16.2931 72.2331 16.816C73.5557 17.1236 74.6631 17.8618 75.1245 18.7539C75.4013 19.246 75.4321 19.7382 75.2475 20.2611C74.9707 21.0916 74.2017 21.9221 72.9713 22.7219C70.6028 24.3214 67.9575 25.521 65.2506 26.5668C63.8049 27.1513 62.3285 27.6742 60.852 28.1663C54.1772 30.4425 46.6718 32.1035 37.9668 33.2417C30.1231 34.2875 21.2336 35.4256 12.4978 34.8104C12.3748 34.7899 12.2415 34.7796 12.0979 34.7796C10.4369 34.6258 8.59134 34.4105 6.96108 33.7953C5.20778 33.1494 3.88512 32.1343 3.33145 30.9655C2.96233 30.1965 2.93158 29.489 3.23917 28.7815C3.76209 27.5511 5.54615 25.7363 10.8368 23.7677C10.8163 23.0705 10.7958 22.3733 10.7753 21.676C5.48463 23.5216 2.40866 25.5825 1.39359 27.9818C0.870679 29.2429 0.901427 30.5348 1.51662 31.8575C2.31637 33.4877 3.9774 34.8412 6.25361 35.7024C8.28375 36.4407 10.4677 36.6867 12.3748 36.8098C12.3953 36.8098 12.4261 36.8098 12.4671 36.8098C14.2101 36.9328 15.9429 36.9943 17.6654 36.9943C24.8017 36.9943 31.8764 36.0715 38.2437 35.241C47.0717 34.1029 54.7001 32.4111 61.5287 30.0734C62.6668 29.6735 63.8664 29.2429 65.0353 28.8123C68.1728 27.6434 71.3103 26.2592 74.0787 24.4136C75.7089 23.3371 76.6932 22.1989 77.1546 20.9378C77.5237 19.892 77.4315 18.7846 76.9085 17.8003Z"
        fill="#4378FB" />
    <path
        d="M76.847 12.1098C76.1088 10.7256 74.54 9.61825 72.6637 9.15685C70.0799 8.54166 66.8809 8.91079 64.0818 9.34142L64.5739 11.31C67.1577 10.9102 69.9569 10.5718 72.2023 11.1255C73.4942 11.4331 74.6016 12.1713 75.0937 13.0633C75.3398 13.5555 75.4013 14.0476 75.2168 14.5706C74.9092 15.4011 74.1402 16.2316 72.9098 17.0621C70.6028 18.6001 68.019 19.7997 65.3737 20.8148C63.8664 21.43 62.3285 21.9529 60.8212 22.4758C54.1156 24.752 46.6103 26.413 37.936 27.5511C30.0616 28.5969 21.172 29.7351 12.4671 29.1199C12.0569 29.0789 11.6365 29.0378 11.2059 28.9968C9.79096 28.8738 8.28373 28.6277 6.89955 28.1048C5.14625 27.4589 3.82359 26.4438 3.26992 25.2749C2.93156 24.5059 2.9008 23.7984 3.17764 23.091C3.70055 21.8606 5.48461 20.0458 10.7138 18.1079C10.7343 17.3902 10.765 16.6725 10.806 15.9547C5.45385 17.8003 2.37789 19.892 1.33206 22.2912C0.809147 23.5524 0.839914 24.8443 1.45511 26.1669C2.25486 27.7972 3.94663 29.1506 6.19208 30.0119C7.94538 30.6271 9.79097 30.9039 11.4827 31.0577C11.7698 31.0782 12.0467 31.0987 12.3133 31.1192C14.0768 31.2423 15.8404 31.3038 17.6039 31.3038C24.7709 31.3038 31.8149 30.381 38.1821 29.5505C47.0101 28.4124 54.6385 26.7206 61.4672 24.3829C62.7591 23.9215 64.051 23.4601 65.3737 22.9679C68.3881 21.8298 71.3718 20.5072 74.0171 18.7231C75.6474 17.6465 76.6625 16.5084 77.0931 15.2473C77.4622 14.2014 77.4007 13.0941 76.847 12.1098Z"
        fill="#00ADEF" />
    <path
        d="M72.6945 11.8329L76.4164 12.5404L72.5099 13.2171L71.9255 17.0313L71.1565 13.2787L67.4346 12.5404L71.095 11.6484L71.9255 8.04951L72.6945 11.8329Z"
        fill="#F9FFF9" />
    <path
        d="M76.3856 18.5385L79.0002 19.0615L76.2626 19.5229L75.8627 22.1989L75.309 19.5536L72.6945 19.0307L75.2783 18.4155L75.8627 15.8932L76.3856 18.5385Z"
        fill="#F9FFF9" />
</svg>