<svg width="11" height="11" viewBox="0 0 11 11" fill="none" xmlns="http://www.w3.org/2000/svg">
    <g clip-path="url(#clip0_4119_4495)">
        <path
            d="M0.408347 5.36669L2.89445 6.29458L3.85672 9.38924C3.91829 9.58745 4.16066 9.6607 4.32153 9.52918L5.70732 8.39946C5.85258 8.2811 6.05949 8.2752 6.2113 8.38539L8.71078 10.2001C8.88287 10.3252 9.12667 10.2309 9.16983 10.0229L11.0008 1.21546C11.0479 0.988306 10.8247 0.798808 10.6085 0.882462L0.405433 4.81848C0.153644 4.91559 0.155838 5.27207 0.408347 5.36669ZM3.70164 5.80064L8.56041 2.80812C8.64773 2.7545 8.73757 2.87257 8.66258 2.94213L4.65269 6.66952C4.51175 6.80071 4.42083 6.9763 4.39508 7.16687L4.25848 8.17914C4.24039 8.31429 4.05053 8.32771 4.01324 8.1969L3.4879 6.35101C3.42773 6.14047 3.51541 5.91559 3.70164 5.80064Z"
            fill="#242222" />
    </g>
    <defs>
        <clipPath id="clip0_4119_4495">
            <rect width="10.7894" height="10.7894" fill="white"
                transform="translate(0.217529 0.164062)" />
        </clipPath>
    </defs>
</svg>