<svg width="11" height="10" viewBox="0 0 11 10" fill="none" xmlns="http://www.w3.org/2000/svg">
    <g clip-path="url(#clip0_4119_4501)">
        <path fill-rule="evenodd" clip-rule="evenodd"
            d="M9.53142 9.03114H6.95251L6.77851 8.80354L4.5358 5.87076L4.20404 5.43748L1.41281 1.7881L0.783936 0.965332H3.36284L3.53682 1.19226L5.63651 3.93726L5.96828 4.3712L8.90253 8.20836L9.53142 9.03114ZM8.42111 8.50562L5.5746 4.78326L5.24282 4.3493L3.05615 1.49018H1.8935L4.597 5.02544L4.92875 5.45938L7.25846 8.50562H8.42111Z"
            fill="#242222" />
        <path
            d="M4.59706 5.02539L4.92881 5.45933L4.53586 5.87071L1.51757 9.03109H0.773682L4.2041 5.43743L4.59706 5.02539Z"
            fill="#242222" />
        <path
            d="M9.22112 0.965332L5.96836 4.3712L5.57468 4.78258L5.24292 4.3493L5.63661 3.93726L7.84025 1.62886L8.47723 0.965332H9.22112Z"
            fill="#242222" />
    </g>
    <defs>
        <clipPath id="clip0_4119_4501">
            <rect width="10" height="9" fill="white" transform="translate(0.106934 0.5)" />
        </clipPath>
    </defs>
</svg>