<svg display="none"
    xmlns="http://www.w3.org/2000/svg">

    <symbol width="40" height="40" viewBox="0 0 40 40" fill="none" id='header-address_icon'>
        <circle cx="20" cy="20" r="19.5" stroke="white" />
        <g clip-path="url(#clip0_4001_5046)">
            <path
                d="M19.9997 11.0001C16.5555 11.0001 13.7534 13.8025 13.7534 17.2469C13.7534 20.5623 19.4208 28.3085 19.6621 28.6365L19.8873 28.943C19.9003 28.9606 19.9172 28.975 19.9367 28.9849C19.9562 28.9949 19.9778 29 19.9997 29.0001C20.0217 29.0001 20.0434 28.9949 20.0631 28.985C20.0827 28.9751 20.0998 28.9607 20.1128 28.943L20.3379 28.6365C20.5793 28.3085 26.2466 20.5623 26.2466 17.2469C26.2466 13.8025 23.4441 11.0001 19.9997 11.0001ZM19.9997 15.0093C21.2338 15.0093 22.2373 16.0128 22.2373 17.2469C22.2373 18.4803 21.2338 19.4844 19.9997 19.4844C18.7664 19.4844 17.7621 18.4803 17.7621 17.2469C17.7621 16.0128 18.7663 15.0093 19.9997 15.0093Z"
                fill="white" />
        </g>
        <defs>
            <clipPath id="clip0_4001_5046">
                <rect width="18" height="18" fill="white" transform="translate(11 11)" />
            </clipPath>
        </defs>
    </symbol>

    <symbol width="40" height="40" viewBox="0 0 40 40" fill="none" id='header-phone_icon'>
        <circle cx="20" cy="20" r="19.5" stroke="white" />
        <g clip-path="url(#clip0_4001_5056)">
            <path
                d="M27.8949 23.7126C27.8488 23.6761 24.5002 21.2624 23.5811 21.4356C23.1424 21.5133 22.8915 21.8125 22.3881 22.4116C22.3071 22.5083 22.1124 22.7401 21.9611 22.9049C21.643 22.8011 21.3326 22.6748 21.0324 22.5269C19.483 21.7726 18.2312 20.5207 17.4769 18.9713C17.3289 18.6712 17.2025 18.3608 17.0989 18.0426C17.2642 17.8908 17.496 17.6961 17.595 17.6129C18.1912 17.1123 18.4911 16.8614 18.5687 16.4215C18.7279 15.5103 16.3159 12.1386 16.2906 12.1083C16.1811 11.9519 16.0383 11.8219 15.8724 11.7275C15.7066 11.6332 15.5218 11.5768 15.3315 11.5626C14.3539 11.5626 11.5627 15.1835 11.5627 15.7932C11.5627 15.8286 11.6139 19.4309 16.056 23.9495C20.5701 28.3865 24.1717 28.4376 24.2072 28.4376C24.8175 28.4376 28.4377 25.6465 28.4377 24.6689C28.4237 24.4793 28.3677 24.2951 28.2739 24.1297C28.18 23.9644 28.0506 23.8219 27.8949 23.7126Z"
                fill="white" />
        </g>
        <defs>
            <clipPath id="clip0_4001_5056">
                <rect width="18" height="18" fill="white" transform="translate(11 11)" />
            </clipPath>
        </defs>
    </symbol>

    <symbol width="40" height="40" viewBox="0 0 40 40" fill="none" id='header-email_icon'>
        <circle cx="20" cy="20" r="19.5" stroke="white" />
        <g clip-path="url(#clip0_4001_5066)">
            <path
                d="M12.7276 17.9387C12.9553 18.0904 13.6417 18.5411 14.7868 19.2906C15.9319 20.04 16.8091 20.617 17.4185 21.0217C17.4854 21.066 17.6277 21.1625 17.8453 21.3111C18.0629 21.4598 18.2438 21.58 18.3876 21.6717C18.5316 21.7633 18.7057 21.8661 18.9101 21.9799C19.1143 22.0936 19.3069 22.1791 19.4877 22.2358C19.6685 22.2929 19.8359 22.3211 19.9899 22.3211H20H20.0101C20.1641 22.3211 20.3316 22.2928 20.5124 22.2358C20.6932 22.1791 20.8859 22.0935 21.09 21.9799C21.2942 21.866 21.4682 21.7633 21.6122 21.6717C21.7562 21.58 21.9369 21.4598 22.1546 21.3111C22.3722 21.1623 22.5146 21.066 22.5816 21.0217C23.1975 20.617 24.7647 19.5892 27.2824 17.9385C27.7712 17.6161 28.1796 17.2271 28.5077 16.7717C28.836 16.3165 29 15.839 29 15.3394C29 14.922 28.8409 14.5646 28.5228 14.2674C28.2047 13.9701 27.8279 13.8215 27.3928 13.8215H12.6071C12.0915 13.8215 11.6947 13.9859 11.4168 14.3148C11.1389 14.6436 11 15.0547 11 15.548C11 15.9464 11.1842 16.3782 11.5525 16.843C11.9207 17.3078 12.3125 17.6731 12.7276 17.9387Z"
                fill="white" />
            <path
                d="M27.9954 18.9537C25.7992 20.3576 24.1316 21.4486 22.9934 22.2266C22.6117 22.4921 22.302 22.6994 22.0642 22.8479C21.8264 22.9965 21.5102 23.1483 21.115 23.3032C20.72 23.4583 20.3519 23.5356 20.0103 23.5356H20H19.9899C19.6484 23.5356 19.2801 23.4583 18.885 23.3032C18.49 23.1483 18.1736 22.9965 17.9358 22.8479C17.6982 22.6994 17.3884 22.4921 17.0068 22.2266C16.1027 21.6005 14.4387 20.5094 12.0146 18.9537C11.6328 18.7135 11.2946 18.4382 11 18.1284V25.6605C11 26.0782 11.1573 26.4353 11.4721 26.7326C11.7868 27.0299 12.1652 27.1786 12.6072 27.1786H27.393C27.8348 27.1786 28.2132 27.0299 28.528 26.7326C28.8428 26.4352 29 26.0782 29 25.6605V18.1284C28.712 18.4318 28.3773 18.7071 27.9954 18.9537Z"
                fill="white" />
        </g>
        <defs>
            <clipPath id="clip0_4001_5066">
                <rect width="18" height="17" fill="white" transform="translate(11 12)" />
            </clipPath>
        </defs>
    </symbol>

    <symbol width="40" height="41" viewBox="0 0 40 41" fill="none" id='header-whatsapp'>
        <circle cx="20" cy="20.3699" r="19.5801" stroke="white" stroke-width="0.839888" />
        <g clip-path="url(#clip0_4001_5030)">
            <path
                d="M20.175 11.37H20.1704C15.1131 11.37 11.0005 15.4837 11.0005 20.5422C11.0005 22.5486 11.6471 24.4083 12.7466 25.9183L11.6036 29.3257L15.1291 28.1987C16.5795 29.1595 18.3096 29.7144 20.175 29.7144C25.2323 29.7144 29.3449 25.5995 29.3449 20.5422C29.3449 15.4849 25.2323 11.37 20.175 11.37ZM25.5121 24.3223C25.2908 24.9472 24.4126 25.4654 23.712 25.6167C23.2328 25.7188 22.6068 25.8002 20.4995 24.9265C17.804 23.8098 16.0681 21.0708 15.9328 20.893C15.8033 20.7153 14.8436 19.4427 14.8436 18.1265C14.8436 16.8103 15.5121 16.1693 15.7815 15.8942C16.0028 15.6683 16.3685 15.5651 16.7194 15.5651C16.8329 15.5651 16.9349 15.5709 17.0266 15.5754C17.2961 15.5869 17.4314 15.603 17.6091 16.0283C17.8303 16.5615 18.3692 17.8777 18.4334 18.013C18.4988 18.1483 18.5641 18.3317 18.4724 18.5094C18.3864 18.6929 18.3107 18.7743 18.1755 18.9302C18.0402 19.0861 17.9118 19.2054 17.7765 19.3727C17.6526 19.5184 17.5128 19.6743 17.6687 19.9437C17.8246 20.2074 18.3635 21.0868 19.1569 21.7931C20.1807 22.7046 21.0108 22.9958 21.3078 23.1196C21.529 23.2113 21.7927 23.1895 21.9544 23.0176C22.1596 22.7963 22.413 22.4294 22.671 22.0682C22.8544 21.8091 23.086 21.777 23.3291 21.8687C23.5767 21.9547 24.8872 22.6025 25.1567 22.7367C25.4261 22.8719 25.6038 22.9361 25.6691 23.0497C25.7334 23.1632 25.7334 23.6963 25.5121 24.3223Z"
                fill="white" />
        </g>
        <defs>
            <clipPath id="clip0_4001_5030">
                <rect width="18.3444" height="18.3444" fill="white"
                    transform="translate(11 11.3699)" />
            </clipPath>
        </defs>
    </symbol>

    <symbol width="40" height="41" viewBox="0 0 40 41" fill="none" id='header-telegram'>
        <circle cx="20" cy="20.3699" r="19.5801" stroke="white" stroke-width="0.839888" />
        <g clip-path="url(#clip0_4001_5034)">
            <path
                d="M11.3225 20.1751L15.5302 21.7455L17.1589 26.9832C17.2631 27.3186 17.6733 27.4426 17.9456 27.22L20.291 25.308C20.5369 25.1077 20.887 25.0977 21.144 25.2842L25.3743 28.3555C25.6656 28.5672 26.0782 28.4076 26.1513 28.0557L29.2502 13.1492C29.3299 12.7647 28.9522 12.444 28.5861 12.5856L11.3176 19.2472C10.8915 19.4116 10.8952 20.0149 11.3225 20.1751ZM16.8964 20.9095L25.1198 15.8447C25.2676 15.754 25.4197 15.9538 25.2927 16.0715L18.506 22.3801C18.2675 22.6021 18.1136 22.8993 18.07 23.2219L17.8389 24.9351C17.8082 25.1639 17.4869 25.1866 17.4238 24.9652L16.5347 21.841C16.4328 21.4847 16.5812 21.1041 16.8964 20.9095Z"
                fill="white" />
        </g>
        <defs>
            <clipPath id="clip0_4001_5034">
                <rect width="18.261" height="18.261" fill="white" transform="translate(11 11.3699)" />
            </clipPath>
        </defs>
    </symbol>

    <symbol width="40" height="42" viewBox="0 0 40 42" fill="none" id='header-twitter'>
        <path
            d="M39.5801 20.9255C39.5801 32.057 30.803 41.0611 20 41.0611C9.19701 41.0611 0.419944 32.057 0.419944 20.9255C0.419944 9.79397 9.19701 0.789874 20 0.789874C30.803 0.789874 39.5801 9.79397 39.5801 20.9255Z"
            stroke="white" stroke-width="0.839888" />
        <path fill-rule="evenodd" clip-rule="evenodd"
            d="M27.9642 29.4317H23.3222L23.009 28.9765L18.9721 23.111L18.3749 22.2444L13.3507 14.9457L12.2188 13.3001H16.8608L17.1739 13.754L20.9534 19.244L21.5506 20.1119L26.8322 27.7862L27.9642 29.4317ZM25.9657 28.3807L20.8419 20.936L20.2447 20.0681L16.3087 14.3498H14.216L19.0823 21.4203L19.6794 22.2882L23.8729 28.3807H25.9657Z"
            fill="white" />
        <path
            d="M19.082 21.4203L19.6792 22.2882L18.9719 23.111L13.5389 29.4317H12.2L18.3747 22.2444L19.082 21.4203Z"
            fill="white" />
        <path
            d="M27.4054 13.3001L21.5504 20.1119L20.8418 20.9346L20.2446 20.0681L20.9533 19.244L24.9198 14.6272L26.0664 13.3001H27.4054Z"
            fill="white" />
    </symbol>

</svg>